<?xml version="1.0" standalone="no"?>
<!DOCTYPE svg PUBLIC "-//W3C//DTD SVG 20010904//EN"
 "http://www.w3.org/TR/2001/REC-SVG-20010904/DTD/svg10.dtd">
<svg version="1.0" xmlns="http://www.w3.org/2000/svg"
 width="1000.000000pt" height="1000.000000pt" viewBox="0 0 1000.000000 1000.000000"
 preserveAspectRatio="xMidYMid meet">

<g transform="translate(0.000000,1000.000000) scale(0.100000,-0.100000)"
fill="#000000" stroke="none">
<path d="M4675 8420 c-33 -4 -52 -7 -43 -8 9 -1 19 -6 22 -11 3 -4 -15 -4 -42
1 -33 6 -81 4 -162 -8 -123 -17 -177 -34 -199 -62 -12 -16 -13 -15 -9 4 5 19
2 20 -46 13 -182 -25 -511 -159 -748 -306 -302 -187 -483 -390 -608 -680 -71
-168 -85 -236 -84 -428 0 -158 2 -176 28 -255 15 -47 48 -127 72 -178 42 -87
57 -105 244 -300 209 -218 296 -300 362 -342 105 -66 176 -137 277 -274 18
-25 38 -46 43 -46 5 0 0 14 -12 30 -12 17 -19 30 -16 30 11 0 66 -57 66 -68 0
-5 7 -12 15 -16 8 -3 15 -16 15 -28 l0 -23 -20 25 c-11 14 -20 20 -20 13 0 -6
14 -23 30 -36 17 -14 30 -29 30 -32 0 -4 20 -34 44 -68 97 -139 205 -349 281
-547 155 -407 231 -940 285 -2005 6 -115 15 -232 20 -260 5 -27 8 -172 7 -321
-4 -486 12 -626 74 -681 16 -15 28 -32 25 -39 -6 -17 71 -97 86 -88 6 4 8 3 5
-3 -8 -13 81 -62 147 -79 52 -14 212 -19 254 -8 12 4 22 12 22 19 0 7 21 16
53 21 l52 8 -50 6 c-45 6 -46 7 -13 8 20 1 39 5 41 10 3 4 -42 5 -100 4 -157
-5 -327 23 -378 63 -15 11 -4 9 38 -6 107 -38 316 -61 382 -40 23 7 3 9 -82
10 -61 1 -144 7 -185 15 -81 16 -158 43 -158 57 0 12 0 12 51 -7 86 -30 184
-45 289 -43 147 2 168 15 28 17 -130 1 -173 5 -270 28 -73 17 -98 35 -79 57 6
8 8 17 4 21 -4 3 -8 13 -9 21 -2 16 32 12 100 -12 48 -16 46 -16 46 2 0 8 -3
14 -7 13 -14 -2 -110 14 -121 21 -6 4 -9 17 -5 29 5 20 10 22 37 17 17 -4 44
-16 61 -28 16 -11 40 -20 52 -19 14 1 23 -4 23 -13 0 -9 -6 -12 -15 -9 -9 4
-15 0 -15 -9 0 -20 26 -25 172 -33 90 -5 130 -4 144 5 16 10 7 11 -48 8 -50
-3 -71 -1 -79 9 -16 19 45 44 108 44 30 0 43 4 35 9 -7 4 -24 6 -36 4 -34 -7
-38 9 -16 53 28 54 23 109 -13 149 -29 33 -37 45 -37 54 0 11 -24 21 -51 21
-10 0 -19 4 -19 10 0 5 -6 8 -12 7 -7 -2 -3 1 10 7 14 6 20 16 17 24 -3 8 0
21 6 28 9 11 7 14 -10 14 -11 0 -21 5 -21 10 0 6 7 10 15 10 10 0 15 10 15 29
0 17 4 32 9 35 5 3 12 37 16 76 4 39 11 73 16 76 5 3 9 14 9 25 0 16 7 19 45
19 25 0 45 4 45 9 0 6 -20 13 -45 17 -47 7 -59 26 -33 52 9 9 8 12 -6 12 -10
0 -16 5 -13 13 2 6 10 11 16 9 10 -2 9 22 -5 66 -2 6 0 12 5 12 4 0 7 16 6 36
0 21 5 39 14 43 12 7 10 12 -7 32 -14 14 -22 18 -22 9 0 -7 -3 -11 -6 -8 -3 3
-1 14 5 25 5 10 12 26 15 36 4 12 16 17 43 17 65 0 69 15 8 29 -30 7 -53 17
-49 22 3 5 8 8 12 5 4 -2 27 0 52 4 l45 7 -47 13 c-57 15 -62 26 -12 28 20 1
43 7 50 13 19 15 18 87 -1 106 -14 14 -14 17 2 29 17 12 16 13 -9 14 -34 0
-84 56 -68 75 15 18 31 76 23 87 -3 6 -9 4 -14 -3 -6 -10 -9 -8 -9 8 0 12 5
23 10 25 7 2 5 22 -5 55 -14 48 -14 55 0 76 12 18 15 47 13 120 -2 56 -6 91
-11 84 -6 -8 -8 -7 -5 3 3 8 11 36 19 63 7 26 17 47 21 47 5 0 2 10 -7 23 -8
13 -12 27 -8 30 10 10 11 59 2 82 -7 17 -8 17 -8 3 -1 -10 -6 -18 -12 -18 -5
0 -8 3 -6 8 2 4 14 27 26 52 40 82 51 98 86 133 19 19 35 41 35 48 0 10 -3 10
-12 1 -14 -14 -98 -16 -98 -2 0 9 45 15 80 10 11 -1 12 1 4 10 -6 6 -30 14
-52 17 -31 4 -39 9 -35 20 5 12 17 14 50 10 23 -2 43 -1 43 4 0 8 -15 13 -67
24 -52 10 -39 27 16 23 33 -2 47 0 41 7 -12 15 -125 39 -150 32 -14 -3 -20 -1
-17 6 2 8 31 11 92 8 81 -3 87 -2 81 15 -4 9 -2 20 4 24 6 4 -6 17 -27 31 -54
35 -55 51 -1 44 l43 -5 -55 20 c-30 10 -63 19 -72 19 -10 1 -18 8 -18 17 0 14
10 15 75 9 41 -4 75 -5 75 -2 0 3 -31 13 -70 22 -88 22 -81 38 13 31 76 -6 77
8 2 19 -61 10 -74 15 -69 28 3 8 28 11 77 10 55 -1 64 0 39 6 -46 12 -48 17
-13 29 34 12 38 23 16 46 -21 21 -20 22 25 18 52 -5 51 4 -2 18 -73 19 -72 18
-57 36 10 13 24 15 61 11 26 -4 48 -4 48 -2 0 2 -25 11 -56 20 -73 21 -59 39
28 37 l63 -1 -50 14 c-27 7 -62 16 -77 19 -53 12 -28 23 45 19 77 -3 71 5 -18
26 -88 21 -79 33 20 27 l90 -6 -65 21 c-60 19 -114 49 -65 36 11 -3 54 -8 95
-11 l75 -5 -50 13 c-27 8 -62 17 -76 20 -15 3 -29 13 -33 21 -6 16 24 16 144
0 51 -6 18 5 -82 29 -58 14 -85 25 -80 32 5 9 33 8 106 -2 55 -8 101 -12 103
-10 5 4 -108 36 -130 36 -8 0 -28 5 -44 12 -15 6 -31 11 -35 10 -5 -1 -8 6 -8
16 0 17 4 17 73 6 123 -22 155 -16 57 11 -124 34 -137 40 -142 68 -8 42 25 49
134 27 136 -29 159 -23 40 10 -56 15 -117 34 -135 41 -17 8 -41 12 -52 11 -16
-2 -15 0 5 11 21 11 26 11 34 -1 5 -9 11 -11 15 -4 4 7 35 5 96 -9 121 -27
150 -20 43 11 -48 13 -97 32 -109 41 -21 15 -14 15 74 -2 53 -10 112 -22 131
-27 19 -6 37 -7 41 -4 3 3 -14 11 -37 17 -126 35 -174 51 -186 62 -21 20 18
17 136 -12 57 -14 106 -25 110 -24 4 0 -44 18 -105 39 -111 38 -154 62 -133
75 6 4 7 24 4 48 -6 37 -5 40 7 25 8 -9 23 -18 34 -20 11 -2 25 -8 30 -14 12
-13 194 -58 202 -50 4 3 1 6 -5 6 -7 0 -12 9 -12 21 0 17 4 19 23 13 45 -14
51 -14 20 1 -18 8 -33 22 -33 31 0 13 7 16 38 11 l37 -5 -32 16 c-18 8 -33 20
-33 24 0 10 80 1 120 -14 l25 -8 -21 17 c-38 32 -48 61 -29 89 9 13 13 29 9
35 -3 6 1 18 10 28 18 19 65 17 78 -3 5 -6 7 21 5 59 l-2 70 40 1 c29 0 41 5
43 17 2 9 -2 17 -10 17 -24 1 -202 77 -206 89 -6 18 18 13 124 -23 90 -32 99
-38 107 -65 4 -17 10 -31 12 -31 3 0 2 12 -1 26 -4 17 -2 29 7 35 10 6 11 9 2
9 -7 0 -13 7 -13 15 0 12 9 14 43 10 l42 -5 -45 13 c-27 8 -45 19 -45 27 0 8
5 14 10 14 6 -1 30 -5 55 -8 43 -6 42 -6 -19 16 -75 27 -97 55 -35 44 22 -4
48 -10 59 -13 13 -3 16 -2 10 4 -5 6 -32 16 -58 23 -27 7 -51 19 -54 27 -8 21
-1 22 42 7 22 -7 53 -16 69 -18 29 -5 49 -23 40 -38 -3 -5 -10 -6 -15 -3 -5 4
-9 1 -9 -4 0 -6 10 -11 23 -11 13 0 28 -5 35 -12 7 -7 12 -9 12 -4 0 4 -7 14
-15 22 -21 21 -19 34 4 34 11 0 22 4 26 9 3 6 -6 7 -23 2 -23 -7 -31 -5 -40
10 -18 28 -14 40 11 34 51 -11 77 -13 77 -5 0 5 -4 12 -10 15 -25 15 -6 24 42
18 37 -5 49 -3 44 5 -4 7 -14 12 -22 12 -8 0 -14 7 -14 16 0 10 6 14 15 10 18
-7 20 5 3 22 -8 8 -8 12 -1 12 16 0 135 -130 130 -143 -2 -7 6 -16 17 -22 33
-17 47 -55 43 -114 -3 -47 -2 -52 9 -36 8 10 11 29 8 41 -8 33 8 56 17 24 5
-19 7 -14 8 21 1 41 -5 54 -49 112 -80 105 -161 188 -246 248 -124 89 -120 87
-145 62 -15 -15 -19 -27 -14 -40 5 -10 7 -25 6 -35 -1 -9 3 -19 10 -23 8 -6 8
-10 -2 -16 -9 -5 -28 6 -57 32 -40 37 -70 47 -64 20 1 -6 -3 -11 -9 -11 -6 0
-9 -9 -6 -20 6 -23 3 -24 -23 -10 -24 13 -35 -3 -20 -29 10 -19 8 -19 -21 -9
-19 7 -28 15 -25 24 3 8 0 14 -7 14 -7 0 7 9 30 19 23 11 51 29 64 42 12 12
35 23 51 25 59 7 92 46 104 125 7 39 -2 96 -13 86 -3 -3 -12 1 -20 9 -12 11
-12 21 -3 49 6 19 9 43 5 54 -7 23 -35 35 -49 21 -5 -5 -14 -10 -20 -10 -18 0
47 48 71 53 19 4 23 1 17 -12 -7 -17 -7 -61 0 -68 2 -3 12 -6 22 -7 10 -2 20
-9 22 -16 3 -9 -1 -11 -12 -7 -10 4 -19 1 -22 -8 -4 -8 -10 -12 -15 -9 -5 3
-9 1 -9 -5 0 -20 22 -23 35 -5 9 12 14 14 15 6 0 -7 5 -10 11 -6 6 3 9 20 7
36 -4 23 1 33 23 49 26 18 28 18 32 2 4 -14 5 -14 6 3 0 12 9 25 18 28 12 5
14 9 6 14 -14 9 -1 78 14 75 5 -1 10 11 11 28 0 19 -4 29 -14 29 -8 0 -14 -4
-14 -9 0 -10 -30 -24 -37 -17 -9 8 8 46 18 41 5 -4 9 2 10 12 0 17 1 17 8 0
11 -29 25 -25 32 8 l7 30 1 -30 c1 -23 3 -27 11 -15 8 13 10 13 10 -2 0 -9 -4
-20 -10 -23 -17 -10 -11 -21 10 -21 13 0 19 5 15 14 -3 8 3 16 15 19 16 4 18
11 13 30 -4 19 -2 24 8 21 8 -3 13 -13 13 -22 -3 -34 21 -8 41 46 4 9 15 18
24 21 12 3 17 13 15 36 -1 23 4 36 22 50 13 10 24 26 24 35 0 9 5 16 11 16 5
0 7 5 4 10 -4 6 -1 9 6 8 8 -2 13 9 14 29 0 29 15 62 15 35 0 -25 16 -10 27
26 7 23 8 41 2 47 -5 5 -9 20 -9 33 0 22 2 23 16 11 15 -12 16 -11 10 9 -5 14
-3 22 4 22 8 0 10 8 7 21 -4 15 1 23 20 30 17 6 23 14 19 25 -3 8 -1 24 4 34
7 13 7 21 0 25 -5 3 -10 11 -10 17 0 6 3 9 6 5 9 -9 34 19 34 37 0 10 -6 13
-17 10 -17 -5 -17 -5 0 9 20 17 23 39 3 31 -8 -3 -17 -1 -20 5 -3 5 7 12 24
16 31 7 42 25 15 25 -8 0 -17 11 -21 25 -4 16 -14 25 -28 26 -14 1 -16 3 -5 6
10 2 16 15 16 32 0 22 -4 28 -15 23 -10 -3 -13 -1 -8 6 4 7 0 15 -11 19 -25 9
-43 29 -43 45 0 23 -57 82 -63 66 -4 -8 -8 -5 -13 10 -4 13 -12 21 -19 18 -8
-3 -11 2 -8 15 3 10 1 19 -4 19 -6 0 -21 9 -34 21 -23 19 -23 21 -5 31 17 10
17 11 -5 24 -46 26 -51 27 -60 13 -8 -12 -10 -12 -8 1 3 32 -2 40 -26 40 -16
0 -25 6 -25 15 0 9 -9 15 -24 15 -13 0 -27 7 -30 16 -3 8 -10 13 -16 9 -8 -5
-54 18 -70 35 -13 14 -61 40 -75 40 -8 0 -25 11 -37 25 -12 14 -29 25 -37 26
-9 1 -5 4 9 9 16 5 29 3 36 -6 6 -8 20 -11 34 -7 13 3 21 2 18 -3 -4 -5 12 -9
33 -10 33 -1 37 1 22 11 -19 12 -90 38 -155 57 -21 6 -38 15 -38 20 0 6 -7 8
-15 4 -8 -3 -15 -1 -15 3 0 5 -3 17 -7 27 -6 16 -3 15 24 -4 26 -19 32 -20 43
-7 6 8 9 19 5 25 -3 5 -4 10 0 10 3 0 10 -11 15 -25 5 -14 15 -25 21 -25 8 0
8 4 -1 15 -16 19 -6 32 13 17 13 -11 57 -6 57 7 0 4 10 7 22 7 14 -1 27 8 34
22 8 17 13 20 18 10 5 -10 7 -10 12 -1 4 9 12 9 30 -4 14 -8 27 -13 31 -9 3 3
11 2 17 -3 14 -12 119 -52 123 -47 5 5 -207 94 -278 116 -149 48 -269 73 -269
56 0 -6 -4 -4 -10 4 -5 8 -12 11 -15 8 -4 -4 -17 -3 -29 1 -12 5 -57 12 -101
15 -44 4 -120 11 -170 16 -49 5 -155 12 -235 15 -133 5 -143 5 -115 -9 l30
-15 -30 6 c-16 3 -31 10 -33 15 -2 4 -25 8 -50 7 -46 -1 -46 -1 -14 -10 17 -5
32 -11 32 -12 0 -1 -29 -2 -65 -2 -55 0 -62 2 -48 13 14 10 2 12 -68 10 -46
-1 -111 -4 -144 -8z m75 -20 c18 -12 2 -12 -25 0 -13 6 -15 9 -5 9 8 0 22 -4
30 -9z m-131 -36 c2 -2 -7 -4 -22 -4 -14 0 -29 5 -32 10 -6 10 42 4 54 -6z
m141 -4 c-24 -19 -40 -25 -40 -15 0 5 51 34 60 34 3 0 -6 -8 -20 -19z m220 -3
c11 -5 9 -6 -4 -4 -11 1 -21 9 -23 17 -3 10 -2 11 4 4 4 -6 15 -14 23 -17z
m116 -3 c-11 -8 -38 -13 -60 -13 l-41 2 43 6 c23 4 48 13 54 19 6 6 14 9 17 6
3 -3 -3 -12 -13 -20z m562 14 c30 -30 -7 -54 -67 -42 -42 9 -39 22 7 30 35 7
35 8 12 15 -24 7 -24 7 6 8 16 1 35 -4 42 -11z m-1265 -5 c-7 -2 -19 -2 -25 0
-7 3 -2 5 12 5 14 0 19 -2 13 -5z m492 -11 c-3 -3 -11 0 -18 7 -9 10 -8 11 6
5 10 -3 15 -9 12 -12z m483 11 c-10 -2 -26 -2 -35 0 -10 3 -2 5 17 5 19 0 27
-2 18 -5z m-948 -23 c0 -14 -49 -32 -74 -27 -18 3 -15 6 14 19 42 19 60 22 60
8z m235 0 c-3 -5 -14 -10 -23 -10 -15 0 -15 2 -2 10 20 13 33 13 25 0z m278 3
c-7 -2 -19 -2 -25 0 -7 3 -2 5 12 5 14 0 19 -2 13 -5z m270 0 c-7 -2 -19 -2
-25 0 -7 3 -2 5 12 5 14 0 19 -2 13 -5z m47 -3 c0 -5 -8 -10 -17 -10 -15 0
-16 2 -3 10 19 12 20 12 20 0z m500 -4 c0 -31 -30 -46 -88 -45 -31 1 -48 3
-37 6 42 9 105 35 105 44 0 5 5 9 10 9 6 0 10 -6 10 -14z m-927 -13 c-13 -2
-33 -2 -45 0 -13 2 -3 4 22 4 25 0 35 -2 23 -4z m184 1 c-3 -3 -12 -4 -19 -1
-8 3 -5 6 6 6 11 1 17 -2 13 -5z m106 -1 c-18 -2 -48 -2 -65 0 -18 2 -4 4 32
4 36 0 50 -2 33 -4z m220 -10 c-18 -2 -48 -2 -65 0 -18 2 -4 4 32 4 36 0 50
-2 33 -4z m194 -10 c-20 -2 -52 -2 -70 0 -17 2 0 4 38 4 39 0 53 -2 32 -4z
m-1262 -33 c3 -5 -1 -10 -9 -10 -9 0 -16 5 -16 10 0 6 4 10 9 10 6 0 13 -4 16
-10z m1625 -430 c0 -5 -10 -10 -22 -10 -19 0 -20 2 -8 10 19 13 30 13 30 0z
m195 -20 c3 -5 1 -10 -4 -10 -6 0 -11 5 -11 10 0 6 2 10 4 10 3 0 8 -4 11 -10z
m-221 -16 c13 -5 14 -9 5 -20 -17 -21 -39 -17 -39 6 0 21 8 24 34 14z m-1720
-19 c5 -15 -8 -19 -47 -15 -10 1 -24 -4 -32 -10 -16 -13 -35 -5 -35 15 0 26
104 35 114 10z m1931 -17 c0 -28 -33 -68 -55 -68 -12 1 -12 3 3 14 9 7 17 18
17 25 0 6 5 11 10 11 6 0 10 9 10 20 0 11 4 20 8 20 4 0 8 -10 7 -22z m-2095
-62 c0 -5 -7 -1 -15 10 -8 10 -14 24 -14 29 0 6 6 1 14 -9 8 -11 15 -24 15
-30z m2100 10 c0 -3 -4 -8 -10 -11 -5 -3 -10 -1 -10 4 0 6 5 11 10 11 6 0 10
-2 10 -4z m-70 -36 c0 -5 -4 -10 -10 -10 -5 0 -10 5 -10 10 0 6 5 10 10 10 6
0 10 -4 10 -10z m-1933 -66 c-3 -3 -12 -4 -19 -1 -8 3 -5 6 6 6 11 1 17 -2 13
-5z m-850 -157 c6 -4 14 -1 16 5 3 7 6 0 6 -16 1 -22 5 -27 17 -22 12 4 15 2
11 -9 -4 -8 -1 -18 6 -22 7 -5 21 -26 31 -48 10 -22 23 -48 28 -59 5 -10 6
-16 1 -13 -4 3 -6 -15 -5 -39 5 -56 -29 -129 -69 -149 -15 -8 -53 -15 -84 -15
-70 0 -125 34 -156 98 -24 49 -32 55 -17 12 21 -62 114 -134 156 -123 28 7 67
-3 87 -23 20 -21 52 -11 33 10 -7 8 -14 10 -16 6 -2 -5 -10 -6 -18 -3 -13 5
-13 7 -2 14 21 14 48 10 48 -6 0 -8 5 -15 10 -15 6 0 10 7 10 16 0 18 32 15
36 -4 1 -7 0 -8 -2 -3 -3 5 -27 -7 -54 -27 -40 -30 -47 -39 -37 -51 7 -8 10
-17 8 -20 -2 -3 7 -12 20 -18 23 -12 23 -13 2 -13 -12 0 -23 5 -25 12 -5 15
-28 1 -28 -18 0 -9 7 -14 18 -12 22 3 52 -18 52 -37 0 -17 -27 -27 -34 -12 -2
7 -5 -3 -5 -21 -1 -26 4 -34 24 -42 16 -6 25 -16 23 -27 -2 -10 5 -19 15 -21
15 -3 18 0 12 18 -5 16 -3 21 6 18 14 -5 21 -58 7 -58 -4 0 1 -14 10 -30 17
-30 17 -30 34 -10 21 25 32 11 18 -25 -13 -34 -13 -35 6 -35 8 0 13 3 10 8 -2
4 2 16 10 27 13 17 14 17 14 1 0 -9 5 -14 10 -11 6 3 10 3 10 -2 0 -13 -14
-28 -27 -29 -35 -3 -38 -4 -23 -14 12 -8 10 -10 -8 -10 -21 0 -23 -3 -17 -32
8 -34 23 -51 37 -42 4 3 8 -1 8 -8 1 -8 6 -6 15 6 18 23 42 15 47 -16 3 -20
10 -24 63 -30 33 -3 64 -2 69 3 6 6 6 9 -1 9 -6 0 -13 9 -16 20 -6 25 2 60 15
60 5 0 7 -9 3 -19 -7 -23 15 -80 38 -100 20 -16 23 -42 5 -38 -8 1 -14 -11
-16 -30 -3 -30 -1 -33 22 -33 16 0 26 6 26 15 0 8 -9 15 -20 15 -11 0 -20 6
-20 14 0 12 6 12 29 3 34 -13 61 -4 61 20 0 15 -2 16 -10 3 -6 -9 -10 -11 -10
-3 0 7 -7 10 -15 7 -9 -4 -15 0 -15 10 0 9 -4 16 -10 16 -5 0 -10 7 -10 15 0
8 5 15 10 15 6 0 10 -7 10 -15 0 -8 7 -15 16 -15 10 0 13 6 9 19 -3 12 0 21 9
24 10 4 13 1 9 -9 -3 -8 2 -30 12 -50 26 -54 31 -102 11 -110 -21 -8 -59 -71
-50 -85 4 -8 0 -9 -15 -4 -24 7 -61 -18 -61 -42 0 -20 -10 -16 -32 12 -33 42
-54 49 -78 25 -17 -17 -19 -24 -9 -36 9 -11 9 -14 -1 -14 -9 0 -11 -15 -6 -57
8 -70 -9 -53 -19 18 -11 79 -48 105 -58 42 -5 -34 -13 -36 -41 -11 -54 48 -64
56 -69 51 -3 -2 -8 5 -12 16 -3 12 -12 21 -18 21 -7 0 -19 5 -27 10 -13 9 -13
11 0 20 11 7 6 8 -17 4 -28 -6 -33 -4 -33 13 0 10 -10 25 -21 33 -12 8 -27 20
-33 25 -23 22 -74 55 -84 55 -17 0 -1 -41 19 -48 10 -4 48 -41 85 -82 37 -41
73 -77 80 -80 20 -8 74 -59 74 -70 0 -6 3 -9 8 -8 14 5 47 -27 67 -64 11 -21
26 -38 35 -38 13 0 80 -88 80 -105 0 -3 -32 26 -72 65 -39 38 -75 70 -79 70
-5 0 -18 10 -29 22 -18 20 -22 21 -31 8 -9 -12 -10 -11 -4 5 5 15 -13 37 -82
102 -48 46 -96 86 -105 89 -10 3 -18 10 -18 15 0 6 -4 8 -9 5 -5 -3 -14 1 -21
9 -7 8 -9 15 -6 15 4 0 -7 20 -25 45 -34 47 -53 56 -63 29 -5 -13 -11 -10 -31
14 -14 17 -25 37 -25 46 0 9 -7 19 -15 22 -8 4 -12 11 -8 17 4 6 0 8 -11 4
-12 -5 -16 -2 -14 11 2 10 -3 16 -10 14 -8 -1 -11 2 -8 7 4 5 2 12 -4 16 -5 3
-15 16 -21 27 -10 18 -3 15 37 -13 55 -39 68 -43 102 -34 23 6 23 7 -22 55
-28 30 -46 58 -46 73 0 14 -17 44 -40 70 -35 39 -39 49 -33 78 3 19 10 37 15
40 6 4 -2 9 -17 11 -19 4 -32 -1 -46 -15 l-19 -21 0 36 c0 125 79 359 168 496
18 28 38 23 34 -9 -2 -21 -1 -22 10 -8 15 18 56 31 63 19 3 -4 18 -7 35 -6 24
2 30 -2 30 -17 0 -16 3 -17 15 -7 8 7 15 19 15 27 0 10 6 13 16 9 13 -5 15 -1
10 20 -7 25 -6 26 23 21 42 -9 39 9 -3 23 -38 12 -93 6 -141 -17 -27 -13 -28
-13 -11 2 11 8 24 15 29 15 4 0 5 5 2 10 -3 6 -1 11 4 11 14 2 22 4 41 12 42
16 75 17 97 4z m-221 -74 c-10 -10 -19 5 -10 18 6 11 8 11 12 0 2 -7 1 -15 -2
-18z m364 -193 c-6 -3 -8 -14 -5 -22 4 -9 2 -19 -4 -23 -17 -10 -13 -25 4 -19
9 4 15 0 15 -8 0 -8 -6 -15 -12 -15 -7 0 -23 -3 -35 -7 -26 -8 -32 8 -7 18 8
3 13 10 10 14 -3 5 0 25 6 44 7 25 15 35 25 31 10 -4 11 -8 3 -13z m3090 -77
c0 -5 -5 -15 -10 -23 -8 -12 -10 -11 -10 8 0 12 5 22 10 22 6 0 10 -3 10 -7z
m-326 -39 c3 -8 2 -12 -4 -9 -6 3 -10 10 -10 16 0 14 7 11 14 -7z m-2757 -31
c-3 -10 -5 -4 -5 12 0 17 2 24 5 18 2 -7 2 -21 0 -30z m2768 -33 c0 -7 -6 -15
-12 -17 -8 -3 -13 4 -13 17 0 13 5 20 13 18 6 -3 12 -11 12 -18z m52 -22 c-3
-8 -6 -5 -6 6 -1 11 2 17 5 13 3 -3 4 -12 1 -19z m-111 -23 c-3 -8 -1 -15 4
-15 6 0 10 -5 10 -11 0 -8 -4 -8 -14 1 -13 10 -12 40 1 40 3 0 3 -7 -1 -15z
m-96 -7 c0 -4 -12 -8 -26 -8 -14 0 -23 4 -19 9 6 11 45 10 45 -1z m-192 -38
c-7 -10 -14 -17 -17 -15 -4 4 18 35 25 35 2 0 -1 -9 -8 -20z m252 1 c0 -5 -6
-12 -12 -14 -8 -3 -5 -6 5 -6 14 -1 18 -8 15 -28 -4 -33 -25 -42 -26 -11 0 13
-1 28 -2 33 -4 19 0 35 10 35 6 0 10 -4 10 -9z m-70 -8 c0 -5 -5 -15 -10 -23
-8 -12 -10 -11 -10 8 0 12 5 22 10 22 6 0 10 -3 10 -7z m127 -25 c-3 -7 -5 -2
-5 12 0 14 2 19 5 13 2 -7 2 -19 0 -25z m-207 7 c0 -8 -4 -15 -10 -15 -5 0 -7
7 -4 15 4 8 8 15 10 15 2 0 4 -7 4 -15z m-2493 -47 c-3 -7 -5 -2 -5 12 0 14 2
19 5 13 2 -7 2 -19 0 -25z m2573 8 c0 -2 -8 -10 -17 -17 -16 -13 -17 -12 -4 4
13 16 21 21 21 13z m147 -43 c-3 -10 -5 -4 -5 12 0 17 2 24 5 18 2 -7 2 -21 0
-30z m-2797 -9 c0 -2 -11 -4 -25 -4 -14 0 -25 4 -25 9 0 4 11 6 25 3 14 -2 25
-6 25 -8z m2720 12 c0 -3 -4 -8 -10 -11 -5 -3 -10 -1 -10 4 0 6 5 11 10 11 6
0 10 -2 10 -4z m51 -19 c-10 -9 -11 -8 -5 6 3 10 9 15 12 12 3 -3 0 -11 -7
-18z m-331 -17 c0 -5 -4 -10 -10 -10 -5 0 -10 5 -10 10 0 6 5 10 10 10 6 0 10
-4 10 -10z m280 0 c0 -5 -5 -10 -11 -10 -5 0 -7 5 -4 10 3 6 8 10 11 10 2 0 4
-4 4 -10z m70 -4 c0 -3 -4 -8 -10 -11 -5 -3 -10 -1 -10 4 0 6 5 11 10 11 6 0
10 -2 10 -4z m-170 -10 c0 -3 -4 -8 -10 -11 -5 -3 -10 -1 -10 4 0 6 5 11 10
11 6 0 10 -2 10 -4z m5 -26 c-3 -5 -12 -10 -18 -10 -7 0 -6 4 3 10 19 12 23
12 15 0z m42 -40 l11 -29 -29 21 c-33 25 -36 30 -12 21 11 -4 14 -3 9 5 -4 7
-3 12 1 12 5 0 14 -13 20 -30z m133 -41 c0 -6 -4 -7 -10 -4 -5 3 -10 11 -10
16 0 6 5 7 10 4 6 -3 10 -11 10 -16z m-2600 -19 c9 -6 10 -10 3 -10 -6 0 -13
-15 -15 -32 -3 -28 -5 -30 -13 -14 -5 11 -4 26 3 37 9 13 8 19 -1 22 -7 3 -7
6 -2 6 6 0 17 -4 25 -9z m2296 -19 c-4 -6 -14 -7 -23 -4 -15 6 -14 7 3 13 22
9 29 6 20 -9z m44 -1 c0 -13 -5 -18 -15 -14 -8 4 -15 10 -15 16 0 5 5 6 10 3
6 -3 10 -1 10 4 0 6 2 11 5 11 3 0 5 -9 5 -20z m-2303 -42 c-3 -8 -6 -5 -6 6
-1 11 2 17 5 13 3 -3 4 -12 1 -19z m43 1 c0 -5 -4 -9 -10 -9 -5 0 -10 7 -10
16 0 8 5 12 10 9 6 -3 10 -10 10 -16z m2424 -2 c-3 -8 -12 -18 -20 -21 -11 -4
-10 0 3 18 20 26 27 28 17 3z m-2570 -15 c-22 -5 -31 7 -14 18 9 6 17 5 22 -3
4 -7 1 -13 -8 -15z m2306 -7 c-7 -8 -20 -15 -29 -15 -11 1 -8 5 9 15 32 18 35
18 20 0z m-2204 -11 c18 -15 18 -15 -8 -9 -22 4 -28 2 -29 -12 0 -16 -2 -15
-9 2 -5 11 -9 23 -9 28 -2 13 35 7 55 -9z m117 -3 c2 -10 1 -25 -4 -32 -6 -10
-9 -4 -9 19 0 36 5 42 13 13z m-123 -45 c0 -3 -4 -8 -10 -11 -5 -3 -10 -1 -10
4 0 6 5 11 10 11 6 0 10 -2 10 -4z m150 -19 c-27 -15 -36 -14 -25 2 3 6 16 11
28 11 21 0 21 -1 -3 -13z m1930 -37 c0 -5 -2 -10 -4 -10 -3 0 -8 5 -11 10 -3
6 -1 10 4 10 6 0 11 -4 11 -10z m-2605 -50 c3 -5 1 -10 -4 -10 -6 0 -11 5 -11
10 0 6 2 10 4 10 3 0 8 -4 11 -10z m805 -46 c0 -2 -7 -1 -15 2 -8 4 -15 18
-15 33 l0 26 15 -29 c8 -15 15 -30 15 -32z m2130 46 c0 -5 -9 -10 -19 -10 -11
0 -23 -4 -26 -10 -3 -5 -13 -10 -22 -10 -26 0 4 28 35 33 15 2 28 5 30 6 1 0
2 -3 2 -9z m-1910 -40 c0 -5 -2 -10 -4 -10 -3 0 -8 5 -11 10 -3 6 -1 10 4 10
6 0 11 -4 11 -10z m1930 -1 c0 -6 -6 -20 -12 -32 -7 -12 -13 -30 -13 -41 0
-10 -11 -26 -24 -34 l-23 -16 7 34 c5 19 8 43 7 52 0 10 9 25 21 33 25 18 37
19 37 4z m-1954 -56 c-11 -11 -17 4 -9 23 7 18 8 18 11 1 2 -10 1 -21 -2 -24z
m-179 -25 c-3 -8 -6 -5 -6 6 -1 11 2 17 5 13 3 -3 4 -12 1 -19z m162 -12 c1 6
8 11 16 11 9 0 15 -7 13 -14 -2 -8 -6 -14 -10 -14 -5 1 -20 1 -35 2 -16 0 -22
3 -15 6 6 2 12 12 13 21 0 14 2 13 9 -3 5 -11 9 -15 9 -9z m314 -13 c-7 -3
-13 -12 -13 -20 0 -9 -3 -14 -6 -10 -4 3 -14 -1 -22 -10 -15 -14 -17 -14 -26
7 -8 18 -6 25 9 36 13 10 21 11 26 3 4 -7 9 -4 13 7 5 14 9 15 19 4 9 -10 9
-13 0 -17z m1447 17 c0 -5 -5 -10 -11 -10 -5 0 -7 5 -4 10 3 6 8 10 11 10 2 0
4 -4 4 -10z m-697 -50 c32 -36 35 -72 7 -118 -33 -54 -84 -65 -140 -30 -19 12
-39 22 -45 23 -5 0 -11 18 -13 41 -2 29 3 47 19 68 49 62 123 69 172 16z
m-1888 20 c3 -5 1 -10 -4 -10 -6 0 -11 5 -11 10 0 6 2 10 4 10 3 0 8 -4 11
-10z m2629 -3 c-2 -7 -14 -18 -26 -26 -17 -11 -22 -11 -29 1 -12 18 -11 28 2
28 5 0 8 -4 4 -9 -11 -19 13 -20 30 -1 21 23 26 25 19 7z m-1999 -7 c3 -5 -1
-10 -10 -10 -9 0 -13 5 -10 10 3 6 8 10 10 10 2 0 7 -4 10 -10z m160 -3 c9 -8
-2 -21 -39 -51 -85 -67 -249 -235 -291 -300 -10 -14 -21 -26 -27 -26 -7 0 -58
48 -58 55 0 1 13 0 29 -3 24 -3 30 0 36 20 4 12 13 30 20 38 7 8 18 36 26 62
11 39 18 48 41 53 15 4 30 15 33 26 4 10 12 19 19 19 8 0 27 16 43 35 17 19
39 35 50 35 12 0 28 11 36 24 17 25 61 32 82 13z m1172 -60 c3 -25 1 -47 -5
-51 -6 -4 -9 8 -9 32 1 20 -2 48 -7 62 -6 20 -6 22 4 13 7 -6 15 -31 17 -56z
m-877 6 c0 -17 -12 -16 -35 1 -19 13 -18 14 8 13 15 -1 27 -8 27 -14z m-660
-45 c17 -33 22 -50 14 -58 -7 -7 -20 8 -41 50 -25 49 -28 60 -14 58 9 -2 27
-24 41 -50z m100 20 c0 -5 -4 -8 -10 -8 -5 0 -10 10 -10 23 0 18 2 19 10 7 5
-8 10 -18 10 -22z m526 -25 c-3 -35 -26 -62 -26 -31 0 13 22 68 27 68 1 0 1
-17 -1 -37z m1799 27 c3 -5 2 -10 -4 -10 -5 0 -13 5 -16 10 -3 6 -2 10 4 10 5
0 13 -4 16 -10z m-450 -9 c3 -5 1 -12 -5 -16 -5 -3 -10 1 -10 9 0 18 6 21 15
7z m-2285 -32 c0 -6 -4 -7 -10 -4 -5 3 -10 11 -10 16 0 6 5 7 10 4 6 -3 10
-11 10 -16z m970 11 c0 -5 -4 -10 -10 -10 -5 0 -10 5 -10 10 0 6 5 10 10 10 6
0 10 -4 10 -10z m-230 -31 c0 -5 -7 -12 -15 -15 -18 -7 -20 -41 -3 -46 7 -3
13 -13 13 -23 0 -24 25 -32 26 -8 0 16 1 16 9 -2 8 -18 9 -18 10 5 l1 25 11
-25 c9 -21 12 -22 15 -7 3 11 11 16 19 13 8 -3 14 1 14 9 0 8 5 15 11 15 5 0
7 5 4 10 -7 11 6 13 29 4 22 -8 20 -21 -3 -29 -11 -3 -23 -14 -26 -24 -3 -11
-15 -21 -25 -24 -22 -6 -28 -51 -8 -63 7 -5 9 -2 6 8 -4 8 -2 21 3 29 8 12 10
12 19 -1 14 -21 12 -36 -5 -54 -18 -17 -20 -30 -4 -20 6 3 15 0 20 -7 8 -12
11 -12 19 1 8 13 11 13 19 1 5 -7 14 -10 20 -7 6 4 11 1 11 -6 1 -8 7 -5 17 7
11 14 14 15 10 4 -3 -9 -1 -21 4 -26 13 -13 -73 -25 -103 -15 -13 5 -59 7
-102 6 -69 -3 -83 -7 -106 -29 -14 -14 -33 -25 -42 -25 -9 0 -29 -11 -45 -24
-24 -20 -30 -21 -41 -10 -10 11 -10 19 -2 35 9 17 8 23 -7 35 -10 8 -28 17
-40 20 -12 3 -24 12 -27 21 -6 14 30 70 70 108 102 95 142 125 161 118 12 -5
15 -2 11 8 -4 10 3 15 23 16 16 1 29 -2 29 -8z m1874 -26 c3 -7 1 -13 -4 -13
-20 0 -58 20 -63 33 -5 12 0 13 28 4 19 -5 36 -16 39 -24z m150 8 c18 -19 17
-20 -10 -12 -15 4 -29 12 -32 19 -6 19 23 14 42 -7z m116 -20 c0 -20 -30 -18
-55 3 -20 17 -23 25 -14 28 16 6 69 -18 69 -31z m-1980 19 c0 -5 -5 -10 -11
-10 -5 0 -7 5 -4 10 3 6 8 10 11 10 2 0 4 -4 4 -10z m1618 -20 c6 0 12 -4 12
-10 0 -13 -1 -13 -49 8 -22 10 -38 21 -35 24 3 4 17 0 32 -8 15 -8 33 -14 40
-14z m-2263 0 c3 -5 -1 -10 -9 -10 -9 0 -16 5 -16 10 0 6 4 10 9 10 6 0 13 -4
16 -10z m2438 -3 c18 -8 38 -21 45 -29 11 -13 8 -14 -27 -5 -21 6 -43 19 -50
29 -13 22 -10 22 32 5z m350 -96 c14 -24 14 -30 3 -34 -8 -3 -27 13 -47 41
-19 26 -34 49 -34 52 0 3 -4 11 -9 19 -5 8 8 0 30 -17 22 -17 47 -45 57 -61z
m-541 63 c27 -6 55 -30 46 -39 -6 -6 -118 42 -118 51 0 4 10 3 23 0 12 -4 34
-9 49 -12z m128 0 c42 -17 57 -40 18 -28 -41 12 -88 33 -88 38 0 11 29 6 70
-10z m221 -10 c10 -9 17 -20 14 -24 -9 -14 -64 3 -87 27 l-23 26 39 -6 c21 -3
47 -14 57 -23z m-2501 -23 c0 -6 -4 -13 -10 -16 -5 -3 -10 1 -10 9 0 9 5 16
10 16 6 0 10 -4 10 -9z m2439 -17 c23 -21 7 -27 -38 -13 -54 16 -65 42 -13 33
20 -3 43 -12 51 -20z m-246 -15 c37 -16 37 -40 -1 -30 -41 12 -92 40 -92 51 0
9 42 -1 93 -21z m113 10 c23 -6 51 -20 61 -32 18 -20 18 -20 -12 -14 -47 9
-125 45 -125 58 0 6 7 8 16 5 9 -4 36 -11 60 -17z m-156 -48 c57 -15 90 -30
90 -42 0 -6 -6 -9 -12 -7 -7 3 -43 15 -80 27 -37 13 -70 27 -74 32 -6 10 10 8
76 -10z m-120 -11 c0 -13 -11 -13 -30 0 -12 8 -11 10 8 10 12 0 22 -4 22 -10z
m-25 -32 c14 -6 25 -15 25 -20 0 -5 -5 -6 -10 -3 -6 3 -22 13 -38 21 -32 17
-14 19 23 2z m163 -12 c83 -29 94 -34 87 -46 -5 -8 -162 45 -179 61 -17 16 18
10 92 -15z m-1483 -7 c-4 -5 -18 -8 -33 -8 -24 2 -24 2 -4 6 12 2 22 9 22 14
0 6 5 7 10 4 6 -4 8 -11 5 -16z m1285 -17 c0 -4 10 -8 21 -9 31 -3 50 -23 21
-23 -29 0 -73 21 -66 31 7 11 24 12 24 1z m201 -23 c62 -19 99 -36 99 -44 0
-16 -62 3 -160 48 -74 34 -58 33 61 -4z m-2096 -1 c-5 -15 38 -68 55 -68 5 0
10 -4 10 -8 0 -4 18 -27 41 -49 22 -23 36 -43 32 -46 -5 -3 -46 31 -92 76 -75
74 -81 82 -65 94 22 16 24 16 19 1z m1712 -28 c-1 -12 -5 -16 -10 -11 -5 5 -6
14 -3 20 11 16 15 13 13 -9z m173 -2 c0 10 8 9 30 -5 35 -20 40 -37 8 -28 -13
4 -31 9 -40 11 -10 3 -18 13 -18 22 0 15 2 15 10 2 7 -11 10 -11 10 -2z
m-1505 -8 c3 -6 -1 -7 -9 -4 -18 7 -21 14 -7 14 6 0 13 -4 16 -10z m135 4 c0
-3 -5 -14 -11 -25 -7 -15 -7 -24 1 -34 8 -10 8 -14 -2 -17 -11 -4 -11 -8 0
-20 10 -13 9 -16 -7 -21 -12 -3 -22 1 -25 9 -3 8 -17 14 -31 14 -36 0 -30 21
15 53 22 16 40 33 40 38 0 5 5 9 10 9 6 0 10 -3 10 -6z m1535 -45 c5 -5 15 -9
21 -9 7 0 25 -5 41 -11 25 -9 26 -11 10 -21 -23 -13 -147 29 -147 50 0 10 8
12 33 7 17 -4 36 -11 42 -16z m-1788 -14 c-4 -8 -11 -15 -17 -15 -14 0 -13 27
3 33 16 6 21 1 14 -18z m1580 19 c-3 -3 -12 -4 -19 -1 -8 3 -5 6 6 6 11 1 17
-2 13 -5z m72 -15 c20 -7 29 -15 23 -21 -13 -13 -62 1 -62 18 0 17 -1 17 39 3z
m-1709 -19 c0 -5 -2 -10 -4 -10 -2 0 -12 -3 -22 -7 -16 -6 -17 -5 -4 10 17 19
30 22 30 7z m1673 -24 c36 -11 57 -22 57 -31 0 -12 -9 -12 -52 5 -28 11 -59
27 -67 36 -9 9 -11 14 -6 12 6 -3 36 -13 68 -22z m153 5 c40 -18 61 -37 52
-47 -10 -10 -113 34 -116 49 -4 22 13 21 64 -2z m-1330 -49 c-7 -7 -46 9 -46
18 0 5 11 4 25 -2 14 -6 23 -13 21 -16z m-386 9 c0 -10 -50 -25 -58 -16 -3 3
2 5 11 5 10 0 17 5 17 10 0 6 7 10 15 10 8 0 15 -4 15 -9z m1564 -16 c25 -7
42 -19 44 -30 4 -19 -13 -16 -83 14 -22 10 -51 23 -65 28 -21 9 -18 10 19 5
24 -3 63 -10 85 -17z m-1260 0 c3 -8 1 -15 -3 -15 -5 0 -11 7 -15 15 -3 8 -1
15 3 15 5 0 11 -7 15 -15z m1425 -3 c28 -11 47 -26 53 -41 6 -19 6 -22 -4 -14
-7 5 -41 20 -75 33 -35 12 -63 26 -63 31 0 14 41 10 89 -9z m-1484 -126 c17
-7 36 -20 44 -29 7 -10 20 -17 27 -17 8 0 14 -3 14 -6 0 -9 -61 -108 -70 -114
-4 -3 -9 -14 -11 -25 -3 -11 -13 -21 -23 -23 -11 -2 -16 0 -12 7 8 12 -11 48
-38 73 -18 17 -18 19 -2 37 17 18 18 18 57 -3 32 -17 41 -19 48 -7 7 10 -3 20
-35 37 -25 13 -50 28 -57 34 -7 6 -42 33 -79 61 -38 28 -68 52 -68 55 0 10 17
2 42 -21 15 -14 31 -25 36 -25 5 0 19 -11 32 -25 13 -14 28 -25 33 -25 5 0 27
-14 48 -31 35 -28 59 -31 59 -9 0 4 -44 38 -97 74 -116 78 -133 91 -133 100 0
4 35 -18 78 -49 42 -30 91 -61 107 -69z m115 91 c11 -5 9 -6 -4 -4 -11 1 -21
9 -23 17 -3 10 -2 11 4 4 4 -6 15 -14 23 -17z m-59 -14 c45 -26 77 -59 43 -46
-7 3 -14 9 -14 14 0 5 -7 9 -15 9 -8 0 -15 5 -15 10 0 6 -8 10 -19 10 -10 0
-24 7 -31 15 -18 22 -4 18 51 -12z m1290 -14 c17 -9 27 -29 14 -29 -9 0 -115
49 -115 53 0 7 79 -12 101 -24z m97 25 c12 -4 22 -11 22 -16 0 -14 -73 -5 -78
10 -4 13 19 16 56 6z m-1383 -75 c5 -5 6 -9 2 -9 -10 0 -107 61 -107 67 0 5
89 -44 105 -58z m1220 25 c50 -14 75 -28 75 -41 0 -10 -6 -13 -16 -9 -9 3 -27
9 -40 12 -13 3 -24 10 -24 15 0 5 -7 9 -15 9 -22 0 -95 24 -95 31 0 6 70 -4
115 -17z m145 -4 c8 -5 12 -11 9 -14 -7 -8 -49 5 -49 15 0 12 21 11 40 -1z
m-255 -40 c-3 -5 -11 -10 -16 -10 -6 0 -7 5 -4 10 3 6 11 10 16 10 6 0 7 -4 4
-10z m75 0 c61 -14 100 -30 100 -42 0 -15 -47 -4 -111 26 -59 27 -57 31 11 16z
m172 -1 c15 -8 17 -13 8 -19 -17 -11 -50 0 -50 16 0 17 14 18 42 3z m-1671
-36 c13 -15 12 -15 -8 -4 -24 12 -29 21 -14 21 5 0 15 -7 22 -17z m1453 0 c4
-4 19 -8 34 -10 39 -5 112 -33 112 -44 0 -5 -5 -9 -10 -9 -14 0 -170 60 -170
66 0 7 26 5 34 -3z m-144 -18 c0 -8 -2 -15 -4 -15 -2 0 -6 7 -10 15 -3 8 -1
15 4 15 6 0 10 -7 10 -15z m367 -10 c15 -13 22 -25 15 -25 -19 0 -72 29 -72
40 0 18 28 10 57 -15z m-1247 -30 l45 -25 -35 5 -35 5 28 -16 c25 -13 27 -18
15 -32 -7 -9 -17 -21 -23 -25 -6 -5 -5 -7 4 -5 16 5 72 -48 68 -65 -1 -7 6
-11 16 -11 13 1 15 -2 8 -10 -13 -16 -9 -82 7 -98 9 -9 12 -9 12 2 0 10 5 7
14 -6 11 -15 12 -30 6 -58 -8 -35 -7 -37 12 -33 14 4 18 1 14 -8 -3 -8 0 -16
7 -19 7 -3 3 -4 -8 -3 -12 1 -19 -3 -17 -12 1 -7 -2 -19 -8 -26 -17 -20 -8
-68 15 -82 12 -7 15 -12 6 -13 -8 0 -11 -6 -7 -15 3 -9 -1 -18 -9 -21 -23 -9
-55 -80 -43 -92 8 -8 8 -18 0 -34 -10 -23 -11 -22 -11 6 -1 21 -5 27 -17 22
-9 -4 -13 -2 -8 5 4 6 1 15 -6 19 -20 12 -50 109 -43 141 5 24 2 29 -15 29
-12 0 -28 13 -40 31 -10 17 -23 30 -28 29 -5 -1 -10 2 -11 7 -2 5 6 9 17 9 11
0 20 -4 20 -8 0 -4 7 -8 15 -8 23 0 18 27 -7 35 -13 4 -27 8 -33 9 -17 2 -25
20 -12 28 6 4 20 -1 30 -10 18 -16 19 -16 16 3 -3 11 -9 20 -16 20 -6 0 -15 3
-19 8 -13 13 -34 8 -34 -9 0 -8 -5 -12 -10 -9 -6 3 -7 17 -4 30 4 18 1 25 -15
30 -13 4 -18 11 -14 18 12 20 11 77 -1 70 -6 -3 -5 0 2 8 14 15 16 33 3 25 -5
-4 -7 3 -4 15 3 11 11 23 17 25 7 3 13 16 14 31 1 14 12 34 24 44 11 11 18 19
14 19 -3 0 1 11 10 25 20 30 18 30 74 0z m1079 -1 c74 -18 91 -28 74 -45 -8
-8 -28 -4 -74 15 -47 19 -65 22 -71 13 -9 -16 -10 -15 68 -35 58 -14 69 -20
70 -39 1 -17 -2 -20 -15 -13 -9 5 -49 21 -88 35 -69 25 -97 53 -55 56 16 1 16
2 -1 6 -21 5 -13 23 10 23 9 0 46 -7 82 -16z m-1426 -60 c11 -14 17 -28 14
-30 -3 -3 -15 9 -27 25 -12 17 -18 31 -13 31 4 0 16 -12 26 -26z m883 -28 c53
14 113 -62 100 -129 -7 -40 -46 -83 -80 -89 -28 -6 -86 16 -86 32 0 6 -10 24
-21 40 -17 22 -20 36 -15 66 8 40 66 109 74 86 2 -7 13 -10 28 -6z m164 -83
c0 -15 5 -21 14 -17 8 3 17 1 20 -5 10 -16 37 -1 31 18 -4 13 2 17 23 18 15 1
21 -1 15 -4 -7 -2 -13 -15 -13 -28 0 -12 -7 -26 -16 -29 -11 -4 -14 -13 -11
-27 7 -25 -18 -37 -45 -20 -17 11 -18 10 -8 -9 7 -13 7 -20 0 -20 -5 0 -10 5
-10 10 0 6 -5 10 -11 10 -6 0 -8 -9 -3 -22 6 -20 5 -21 -9 -10 -10 9 -17 10
-22 2 -3 -5 -10 -10 -14 -10 -4 0 1 26 12 58 15 42 18 68 13 96 -6 29 -10 36
-17 25 -5 -8 -9 -9 -9 -3 0 5 6 16 12 22 10 10 16 8 30 -10 10 -13 18 -33 18
-45z m-990 26 c0 -14 -17 -10 -23 5 -4 10 -1 13 9 9 7 -3 14 -9 14 -14z m1137
-31 c-3 -8 -6 -5 -6 6 -1 11 2 17 5 13 3 -3 4 -12 1 -19z m-190 -30 c-3 -8 -6
-5 -6 6 -1 11 2 17 5 13 3 -3 4 -12 1 -19z m63 -108 c0 -5 -5 -10 -11 -10 -5
0 -7 5 -4 10 3 6 8 10 11 10 2 0 4 -4 4 -10z m49 -4 c10 -12 8 -13 -8 -9 -12
3 -21 9 -21 14 0 14 16 11 29 -5z m-604 -26 c3 -5 2 -10 -4 -10 -5 0 -13 5
-16 10 -3 6 -2 10 4 10 5 0 13 -4 16 -10z m-337 -55 c0 -16 -2 -15 -8 5 -11
34 -11 60 0 35 5 -11 8 -29 8 -40z m992 -175 c0 -5 -2 -10 -4 -10 -3 0 -8 5
-11 10 -3 6 -1 10 4 10 6 0 11 -4 11 -10z m-891 -85 l0 -20 -9 20 c-5 11 -9
27 -9 35 -1 13 0 13 9 0 5 -8 9 -24 9 -35z m21 -70 c0 -8 -2 -15 -4 -15 -2 0
-6 7 -10 15 -3 8 -1 15 4 15 6 0 10 -7 10 -15z m17 -87 c-3 -7 -5 -2 -5 12 0
14 2 19 5 13 2 -7 2 -19 0 -25z m804 -145 c13 -15 12 -15 -8 -4 -24 12 -29 21
-14 21 5 0 15 -7 22 -17z m-455 -80 c-6 -6 -36 9 -36 18 0 5 9 4 20 -3 10 -7
18 -14 16 -15z m285 -4 c16 -17 29 -35 29 -40 0 -5 3 -8 8 -8 18 3 32 -2 32
-11 0 -5 -7 -10 -15 -10 -9 0 -15 -9 -15 -25 0 -41 -37 -104 -65 -111 -58 -15
-115 34 -115 99 0 15 -7 30 -15 33 -22 9 -18 34 6 34 15 0 19 5 14 19 -4 14 3
22 32 34 56 22 72 20 104 -14z m-281 -53 c30 -14 44 -24 30 -20 -35 8 -109 44
-116 56 -4 6 0 6 12 0 11 -5 44 -21 74 -36z m-67 -45 c-2 -15 2 -19 15 -15 14
5 14 4 2 -4 -8 -6 -18 -8 -22 -6 -10 7 -10 1 2 -31 8 -20 14 -24 34 -19 14 3
27 1 31 -6 5 -9 1 -10 -14 -5 -27 8 -27 -6 -1 -25 11 -8 20 -18 20 -22 0 -15
-20 -8 -37 12 -20 23 -35 26 -27 6 3 -8 0 -17 -6 -21 -6 -4 -11 -1 -9 6 3 27
-1 49 -10 49 -5 0 -8 -12 -6 -27 2 -16 4 -32 4 -37 1 -4 7 -6 15 -3 15 6 82
-31 72 -40 -3 -3 -12 0 -20 6 -11 9 -16 9 -22 0 -5 -9 -9 -7 -14 6 -6 16 -7
17 -13 2 -4 -11 4 -22 26 -37 28 -19 29 -20 7 -14 -50 14 -86 47 -81 76 0 4
-6 5 -14 2 -8 -4 -15 -1 -15 4 0 6 10 12 23 14 27 4 24 23 -5 22 -19 -1 -19 0
3 17 13 10 30 19 36 19 9 0 10 7 3 26 -6 14 -7 30 -4 36 4 6 3 13 -2 17 -5 3
-15 17 -23 30 l-13 24 33 -21 c22 -14 33 -29 32 -41z m52 -1 c3 -6 -1 -7 -9
-4 -18 7 -21 14 -7 14 6 0 13 -4 16 -10z m145 -22 c0 -5 -9 -4 -20 2 -11 6
-18 15 -14 21 6 11 34 -7 34 -23z m-86 -7 c4 -5 -3 -7 -14 -4 -23 6 -26 13 -6
13 8 0 17 -4 20 -9z m-59 -11 c3 -5 1 -10 -4 -10 -6 0 -11 5 -11 10 0 6 2 10
4 10 3 0 8 -4 11 -10z m125 -16 c0 -8 -4 -12 -10 -9 -5 3 -10 10 -10 16 0 5 5
9 10 9 6 0 10 -7 10 -16z m270 -24 c0 -5 -4 -10 -10 -10 -5 0 -10 5 -10 10 0
6 5 10 10 10 6 0 10 -4 10 -10z m65 0 c3 -5 -1 -10 -10 -10 -9 0 -13 5 -10 10
3 6 8 10 10 10 2 0 7 -4 10 -10z m-503 -180 c8 0 23 -7 34 -15 18 -14 17 -14
-13 -9 -20 4 -33 2 -33 -4 0 -6 15 -22 33 -36 38 -31 26 -34 -21 -6 -18 11
-41 20 -52 20 -11 0 -20 5 -20 10 0 6 5 10 11 10 13 0 2 53 -12 58 -5 2 -9 8
-9 14 0 6 15 -1 34 -16 19 -14 41 -26 48 -26z m73 20 c3 -6 -1 -7 -9 -4 -18 7
-21 14 -7 14 6 0 13 -4 16 -10z m10 -60 c3 -5 2 -10 -4 -10 -5 0 -13 5 -16 10
-3 6 -2 10 4 10 5 0 13 -4 16 -10z m-111 -45 c29 -29 22 -32 -17 -7 -15 10
-24 22 -20 25 9 10 9 10 37 -18z m113 -11 c-3 -3 -12 -4 -19 -1 -8 3 -5 6 6 6
11 1 17 -2 13 -5z m-52 -85 c5 -7 -1 -6 -16 2 -13 7 -30 14 -38 15 -8 2 -24
12 -35 24 -20 20 -17 20 31 -4 28 -14 55 -31 58 -37z m-70 -17 c-3 -3 -11 0
-18 7 -9 10 -8 11 6 5 10 -3 15 -9 12 -12z m50 -22 c3 -5 1 -10 -4 -10 -6 0
-11 5 -11 10 0 6 2 10 4 10 3 0 8 -4 11 -10z m-50 -38 c-3 -3 -11 0 -18 7 -9
10 -8 11 6 5 10 -3 15 -9 12 -12z m5 -58 c0 -2 -9 0 -20 6 -11 6 -20 13 -20
16 0 2 9 0 20 -6 11 -6 20 -13 20 -16z m-153 -71 c-3 -10 -5 -2 -5 17 0 19 2
27 5 18 2 -10 2 -26 0 -35z m183 8 c13 -10 13 -11 0 -11 -8 0 -28 12 -45 26
l-30 25 30 -15 c17 -8 37 -20 45 -25z m25 -62 c11 -16 1 -19 -13 -3 -7 8 -8
14 -3 14 5 0 13 -5 16 -11z m-198 -41 c-3 -8 -6 -5 -6 6 -1 11 2 17 5 13 3 -3
4 -12 1 -19z m199 -85 c-6 -6 -36 9 -36 18 0 5 9 4 20 -3 10 -7 18 -14 16 -15z
m-47 -38 c3 -17 2 -17 -13 -3 -19 20 -21 31 -3 26 6 -3 14 -13 16 -23z m461
-5 c0 -5 -4 -10 -10 -10 -5 0 -10 5 -10 10 0 6 5 10 10 10 6 0 10 -4 10 -10z
m-505 -10 c3 -5 1 -10 -4 -10 -6 0 -11 5 -11 10 0 6 2 10 4 10 3 0 8 -4 11
-10z m99 4 c9 -3 16 -14 16 -23 -1 -14 -2 -14 -11 2 -6 9 -14 15 -20 12 -5 -4
-9 -1 -9 4 0 13 3 13 24 5z m-207 -41 c-3 -10 -5 -4 -5 12 0 17 2 24 5 18 2
-7 2 -21 0 -30z m193 -16 c11 -4 9 -6 -5 -6 -11 0 -31 9 -45 20 l-25 20 30
-14 c17 -8 37 -17 45 -20z m6 -52 c49 -25 87 -45 84 -45 -5 0 -85 29 -121 44
-21 9 -33 -8 -16 -22 6 -5 41 -25 77 -43 72 -36 67 -52 -6 -20 -55 25 -54 25
-54 7 0 -7 20 -24 45 -37 58 -31 59 -45 0 -17 -45 22 -67 20 -47 -5 6 -7 34
-24 62 -37 41 -19 48 -25 34 -33 -13 -8 -14 -11 -3 -18 12 -8 12 -11 -1 -19
-13 -9 -13 -10 0 -10 11 0 12 -2 3 -8 -16 -10 -12 -75 6 -96 8 -10 11 -27 8
-46 -4 -16 -2 -32 2 -35 5 -3 8 -22 6 -43 -1 -20 2 -40 9 -44 8 -5 7 -11 -2
-20 -16 -16 -16 -75 1 -80 12 -5 18 -34 18 -92 0 -16 4 -36 8 -45 6 -11 3 -23
-10 -39 -16 -21 -17 -26 -4 -39 38 -38 -11 -40 -85 -3 -82 41 -100 52 -129 82
-33 34 -43 60 -14 37 13 -11 15 -11 9 -1 -19 31 -23 216 -6 287 7 28 12 63 12
79 -1 17 2 34 5 39 10 17 12 137 2 137 -6 0 -8 9 -4 19 3 11 1 22 -4 26 -7 4
-5 15 5 31 9 13 13 24 9 24 -4 0 -2 7 6 16 10 13 10 17 -1 24 -7 4 -10 15 -7
24 4 9 3 16 -2 16 -4 0 -6 11 -3 25 2 14 8 25 12 25 4 0 47 -20 96 -45z m44
29 c0 -2 -7 -4 -15 -4 -8 0 -15 4 -15 10 0 5 7 7 15 4 8 -4 15 -8 15 -10z
m-243 -61 c-3 -10 -5 -2 -5 17 0 19 2 27 5 18 2 -10 2 -26 0 -35z m0 -160 c-3
-10 -5 -4 -5 12 0 17 2 24 5 18 2 -7 2 -21 0 -30z m0 -145 c-2 -24 -4 -5 -4
42 0 47 2 66 4 43 2 -24 2 -62 0 -85z m653 -56 c0 -9 -7 -11 -22 -7 -37 12
-41 22 -9 21 18 -1 31 -6 31 -14z m15 -43 c11 -17 -2 -22 -40 -15 -19 4 -33
11 -30 17 8 12 62 12 70 -2z m-668 -36 c-3 -10 -5 -4 -5 12 0 17 2 24 5 18 2
-7 2 -21 0 -30z m1 -114 c-1 -46 -5 -75 -9 -67 -14 22 -8 148 7 148 1 0 2 -36
2 -81z m556 -19 c-6 -6 -10 -3 -10 10 0 13 4 16 10 10 7 -7 7 -13 0 -20z
m-558 -148 c-4 -54 -16 -48 -16 9 1 37 3 49 10 39 5 -9 8 -30 6 -48z m226
-123 c66 -32 88 -57 88 -99 0 -11 -7 -20 -15 -20 -8 0 -15 -8 -15 -17 0 -16 2
-16 11 -3 8 11 9 4 5 -28 -5 -32 -3 -42 5 -36 8 5 10 2 6 -8 -3 -9 -1 -20 4
-25 5 -5 1 -35 -11 -73 -11 -36 -29 -98 -41 -137 -15 -52 -27 -73 -38 -73 -42
0 -191 104 -191 134 0 5 11 -1 25 -14 14 -13 25 -20 25 -15 0 4 8 1 18 -7 19
-17 88 -48 106 -48 10 1 -22 24 -34 25 -16 2 -99 62 -122 88 -32 37 -29 46 7
23 14 -9 36 -23 50 -32 21 -14 25 -14 25 -2 0 8 -15 23 -34 33 -39 21 -66 65
-41 65 20 0 19 15 -2 47 -17 25 -17 26 2 15 11 -6 36 -22 55 -37 22 -16 36
-21 39 -14 2 6 -5 16 -15 22 -11 6 -36 27 -56 47 -34 33 -36 39 -29 72 5 20 5
42 0 49 -4 7 -3 19 2 25 7 9 5 15 -8 23 -17 9 -17 11 2 25 11 9 14 16 8 16
-15 0 -18 30 -4 30 5 0 7 10 4 21 -6 21 -3 20 48 -9 30 -17 84 -46 121 -63z
m-222 32 c0 -6 -4 -13 -10 -16 -5 -3 -10 1 -10 9 0 9 5 16 10 16 6 0 10 -4 10
-9z m550 -137 c0 -8 -4 -12 -10 -9 -5 3 -10 10 -10 16 0 5 5 9 10 9 6 0 10 -7
10 -16z m-196 -291 c9 4 13 -5 12 -31 -1 -19 -7 -37 -14 -40 -8 -2 -10 3 -6
15 3 10 -3 3 -15 -14 -11 -18 -25 -33 -31 -33 -5 0 -10 -5 -10 -10 0 -6 13 -4
30 5 29 15 30 15 30 -5 0 -12 6 -27 13 -35 66 -70 67 -83 7 -146 l-50 -54 -25
30 c-14 17 -25 37 -25 45 -1 13 -2 13 -13 0 -18 -23 -47 -13 -47 15 0 13 4 26
9 29 5 3 12 21 15 40 5 23 12 33 23 32 10 0 19 7 21 18 2 11 0 16 -7 12 -15
-10 -14 17 3 51 27 52 46 101 47 120 0 10 5 3 10 -15 6 -21 15 -32 23 -29z
m-337 25 c-3 -8 -6 -5 -6 6 -1 11 2 17 5 13 3 -3 4 -12 1 -19z m36 -82 c18
-13 61 -38 97 -56 36 -18 67 -34 69 -36 9 -8 -33 -124 -44 -124 -17 0 -94 58
-124 93 -57 66 -78 113 -46 101 8 -4 15 -1 15 5 0 6 -4 11 -10 11 -5 0 -7 7
-4 15 8 20 10 19 47 -9z m334 2 c-3 -8 -6 -5 -6 6 -1 11 2 17 5 13 3 -3 4 -12
1 -19z m63 18 c0 -3 -4 -8 -10 -11 -5 -3 -10 -1 -10 4 0 6 5 11 10 11 6 0 10
-2 10 -4z m-392 -177 c38 -29 78 -54 120 -76 2 -1 1 -11 -3 -22 l-6 -21 -40
22 c-55 31 -140 128 -138 160 0 7 5 4 10 -7 6 -11 32 -36 57 -56z m54 -109
c16 0 48 -31 48 -47 0 -20 -18 -16 -57 15 -37 27 -113 117 -113 132 0 5 25
-16 55 -46 31 -30 61 -54 67 -54z m-30 -37 c14 -12 36 -26 47 -33 12 -6 21
-18 21 -26 0 -23 -65 19 -117 75 -49 54 -58 88 -10 39 18 -18 44 -43 59 -55z
m-67 7 c3 -5 1 -10 -4 -10 -6 0 -11 5 -11 10 0 6 2 10 4 10 3 0 8 -4 11 -10z
m55 -51 c3 -3 20 -14 38 -23 17 -9 32 -21 32 -27 0 -12 -47 12 -82 44 -30 27
-39 48 -10 26 9 -8 19 -17 22 -20z m-45 1 c10 -11 16 -20 13 -20 -3 0 -13 9
-23 20 -10 11 -16 20 -13 20 3 0 13 -9 23 -20z m91 -65 c10 -8 15 -14 9 -14
-5 0 -19 6 -29 14 -11 8 -15 15 -10 15 6 0 19 -7 30 -15z m-6 -36 c0 -14 -5
-11 -31 17 l-24 27 28 -18 c15 -9 27 -21 27 -26z m95 -40 c82 -29 206 -48 290
-44 42 1 62 -1 50 -6 -33 -13 -165 -10 -238 6 -38 8 -92 25 -120 39 -65 30
-59 32 18 5z m-24 -37 c-7 -2 -18 1 -23 6 -8 8 -4 9 13 5 13 -4 18 -8 10 -11z"/>
<path d="M3001 7274 c0 -11 3 -14 6 -6 3 7 2 16 -1 19 -3 4 -6 -2 -5 -13z"/>
<path d="M2870 7049 c0 -5 5 -7 10 -4 6 3 10 8 10 11 0 2 -4 4 -10 4 -5 0 -10
-5 -10 -11z"/>
<path d="M2852 6980 c0 -14 2 -19 5 -12 2 6 2 18 0 25 -3 6 -5 1 -5 -13z"/>
<path d="M2837 6943 c-11 -19 -19 -78 -9 -68 11 11 27 75 18 75 -2 0 -7 -3 -9
-7z"/>
<path d="M3240 6859 c0 -11 5 -17 10 -14 6 3 10 13 10 21 0 8 -4 14 -10 14 -5
0 -10 -9 -10 -21z"/>
<path d="M3368 6613 c7 -3 16 -2 19 1 4 3 -2 6 -13 5 -11 0 -14 -3 -6 -6z"/>
<path d="M3320 6600 c0 -5 5 -10 10 -10 6 0 10 5 10 10 0 6 -4 10 -10 10 -5 0
-10 -4 -10 -10z"/>
<path d="M3430 6491 c0 -10 39 -31 44 -23 2 4 -7 12 -20 19 -13 6 -24 8 -24 4z"/>
<path d="M3471 6426 c-8 -13 -10 -29 -6 -35 9 -15 25 -4 19 13 -3 7 2 16 11
20 9 3 13 10 10 16 -10 16 -21 12 -34 -14z"/>
<path d="M3535 6440 c-15 -7 -10 -9 23 -9 23 -1 45 -1 49 -2 4 0 9 4 11 10 4
13 -54 14 -83 1z"/>
<path d="M3633 6410 c-12 -17 -11 -18 9 -11 25 9 36 31 16 31 -7 0 -19 -9 -25
-20z"/>
<path d="M3578 6403 c6 -2 18 -2 25 0 6 3 1 5 -13 5 -14 0 -19 -2 -12 -5z"/>
<path d="M3630 6366 c0 -18 49 -76 50 -58 0 7 -7 15 -15 18 -8 4 -15 17 -15
30 0 13 -4 24 -10 24 -5 0 -10 -6 -10 -14z"/>
<path d="M3601 6354 c0 -11 3 -14 6 -6 3 7 2 16 -1 19 -3 4 -6 -2 -5 -13z"/>
<path d="M5955 6330 c-3 -6 1 -7 9 -4 18 7 21 14 7 14 -6 0 -13 -4 -16 -10z"/>
<path d="M3917 6204 c-4 -4 -7 -14 -7 -23 0 -11 3 -12 11 -4 6 6 10 16 7 23
-2 6 -7 8 -11 4z"/>
<path d="M4085 5943 c5 -17 1 -22 -17 -26 -20 -4 -20 -4 5 -6 28 -1 34 13 16
39 -8 12 -9 10 -4 -7z"/>
<path d="M3940 5904 c0 -8 2 -14 4 -14 2 0 11 -3 19 -6 9 -3 16 2 19 13 4 13
-1 18 -19 19 -14 1 -23 -4 -23 -12z"/>
<path d="M4185 5820 c4 -6 11 -8 16 -5 14 9 11 15 -7 15 -8 0 -12 -5 -9 -10z"/>
<path d="M4240 5391 c0 -10 19 -25 25 -20 1 2 -3 10 -11 17 -8 7 -14 8 -14 3z"/>
<path d="M4270 5310 c0 -5 5 -10 10 -10 6 0 10 5 10 10 0 6 -4 10 -10 10 -5 0
-10 -4 -10 -10z"/>
<path d="M4450 5330 c0 -5 7 -7 15 -4 8 4 15 8 15 10 0 2 -7 4 -15 4 -8 0 -15
-4 -15 -10z"/>
<path d="M4475 5260 c9 -10 15 -26 12 -35 -4 -8 -2 -15 3 -15 17 0 15 35 -2
52 -24 24 -35 23 -13 -2z"/>
<path d="M4516 5163 c-12 -12 -6 -33 9 -33 8 0 15 6 15 14 0 17 -14 28 -24 19z"/>
<path d="M4482 5103 c2 -11 14 -17 36 -19 22 -2 32 1 29 9 -2 7 -11 11 -20 9
-8 -1 -18 2 -22 8 -10 16 -27 12 -23 -7z"/>
<path d="M4524 5057 c-8 -21 2 -35 16 -21 5 5 6 15 0 24 -8 12 -10 12 -16 -3z"/>
<path d="M4562 5039 c2 -6 8 -10 13 -10 5 0 11 4 13 10 2 6 -4 11 -13 11 -9 0
-15 -5 -13 -11z"/>
<path d="M4445 5030 c-3 -5 1 -10 10 -10 9 0 13 5 10 10 -3 6 -8 10 -10 10 -2
0 -7 -4 -10 -10z"/>
<path d="M4460 4970 c0 -5 5 -10 10 -10 6 0 10 5 10 10 0 6 -4 10 -10 10 -5 0
-10 -4 -10 -10z"/>
<path d="M4510 4760 c0 -5 5 -10 10 -10 6 0 10 5 10 10 0 6 -4 10 -10 10 -5 0
-10 -4 -10 -10z"/>
<path d="M5200 5150 c0 -5 5 -10 10 -10 6 0 10 5 10 10 0 6 -4 10 -10 10 -5 0
-10 -4 -10 -10z"/>
<path d="M4656 2371 c-4 -5 -2 -12 3 -15 5 -4 12 -2 15 3 4 5 2 12 -3 15 -5 4
-12 2 -15 -3z"/>
<path d="M4700 2346 c0 -9 5 -16 10 -16 6 0 10 4 10 9 0 6 -4 13 -10 16 -5 3
-10 -1 -10 -9z"/>
<path d="M4756 2315 c4 -8 10 -12 15 -9 14 8 10 24 -6 24 -9 0 -12 -6 -9 -15z"/>
<path d="M4730 2275 c0 -8 7 -15 16 -15 14 0 14 3 4 15 -7 8 -14 15 -16 15 -2
0 -4 -7 -4 -15z"/>
<path d="M4785 2260 c-3 -6 1 -13 10 -16 19 -8 30 0 20 15 -8 14 -22 14 -30 1z"/>
<path d="M4812 1750 c0 -14 2 -19 5 -12 2 6 2 18 0 25 -3 6 -5 1 -5 -13z"/>
<path d="M6314 8176 c11 -9 24 -16 30 -16 12 0 7 5 -24 19 -24 11 -24 11 -6
-3z"/>
<path d="M6430 8116 c0 -3 14 -12 30 -21 17 -9 30 -13 30 -11 0 3 -13 12 -30
21 -16 9 -30 13 -30 11z"/>
<path d="M6088 8073 c7 -3 16 -2 19 1 4 3 -2 6 -13 5 -11 0 -14 -3 -6 -6z"/>
<path d="M6587 7439 c7 -7 15 -10 18 -7 3 3 -2 9 -12 12 -14 6 -15 5 -6 -5z"/>
<path d="M6703 7428 c-41 -51 -58 -161 -32 -211 18 -34 51 -67 67 -67 12 0 9
7 -8 25 -13 14 -18 25 -11 25 7 0 9 5 6 10 -4 6 5 20 20 31 18 15 24 27 20 40
-7 23 3 24 31 5 18 -13 20 -12 21 5 1 10 -6 24 -16 31 -10 7 -21 23 -25 36 -4
12 -20 36 -35 53 -22 23 -30 27 -38 17z"/>
<path d="M6587 7363 c-12 -11 -8 -23 8 -23 8 0 15 7 15 15 0 16 -12 20 -23 8z"/>
<path d="M6556 7293 c-6 -14 -5 -15 5 -6 7 7 10 15 7 18 -3 3 -9 -2 -12 -12z"/>
<path d="M6595 7300 c3 -5 10 -10 16 -10 5 0 9 5 9 10 0 6 -7 10 -16 10 -8 0
-12 -4 -9 -10z"/>
<path d="M6510 7220 c0 -5 5 -10 10 -10 6 0 10 5 10 10 0 6 -4 10 -10 10 -5 0
-10 -4 -10 -10z"/>
<path d="M6582 7090 c0 -14 2 -19 5 -12 2 6 2 18 0 25 -3 6 -5 1 -5 -13z"/>
<path d="M6530 7039 c0 -5 5 -7 10 -4 6 3 10 8 10 11 0 2 -4 4 -10 4 -5 0 -10
-5 -10 -11z"/>
<path d="M6401 6894 c0 -11 3 -14 6 -6 3 7 2 16 -1 19 -3 4 -6 -2 -5 -13z"/>
<path d="M6370 6880 c0 -5 5 -10 11 -10 5 0 7 5 4 10 -3 6 -8 10 -11 10 -2 0
-4 -4 -4 -10z"/>
<path d="M6375 6849 c-10 -15 3 -25 16 -12 7 7 7 13 1 17 -6 3 -14 1 -17 -5z"/>
<path d="M6211 6664 c0 -11 3 -14 6 -6 3 7 2 16 -1 19 -3 4 -6 -2 -5 -13z"/>
<path d="M6154 6634 c3 -8 6 -18 6 -20 0 -3 5 -2 10 1 15 9 12 22 -6 29 -12 5
-15 2 -10 -10z"/>
<path d="M6075 6510 c-7 -24 9 -58 19 -41 4 6 2 11 -4 11 -8 0 -10 9 -6 25 8
30 0 34 -9 5z"/>
<path d="M6121 6464 c0 -11 3 -14 6 -6 3 7 2 16 -1 19 -3 4 -6 -2 -5 -13z"/>
<path d="M6151 6464 c0 -11 3 -14 6 -6 3 7 2 16 -1 19 -3 4 -6 -2 -5 -13z"/>
<path d="M6170 6410 c-8 -5 -18 -6 -24 -3 -5 3 -6 1 -2 -6 4 -6 11 -9 16 -6 4
3 10 1 12 -4 1 -5 9 -3 15 4 15 17 3 27 -17 15z"/>
<path d="M6242 6394 c-34 -23 -29 -47 8 -39 19 4 30 3 30 -4 0 -11 -12 -15
-85 -26 -40 -7 -65 -20 -65 -36 0 -14 73 -59 95 -59 12 0 27 -12 37 -30 10
-18 25 -30 38 -30 29 0 80 28 80 44 0 11 -8 11 -40 3 -47 -13 -61 -4 -34 23
19 19 98 43 109 32 8 -9 6 -34 -3 -28 -5 3 -9 -1 -9 -9 0 -11 4 -12 14 -4 20
17 16 57 -8 69 -27 15 -76 4 -116 -26 -28 -21 -35 -23 -53 -12 -26 16 -26 28
0 28 11 0 37 7 57 15 33 14 35 17 29 48 -6 31 -29 57 -51 57 -6 0 -21 -7 -33
-16z"/>
<path d="M6480 6210 c0 -12 28 -21 35 -11 2 5 -4 11 -15 14 -11 3 -20 2 -20
-3z"/>
<path d="M6350 6135 c0 -3 9 -15 19 -26 13 -14 21 -17 26 -9 4 6 -1 18 -11 25
-20 15 -34 19 -34 10z"/>
<path d="M6510 6129 c0 -5 5 -7 10 -4 6 3 10 8 10 11 0 2 -4 4 -10 4 -5 0 -10
-5 -10 -11z"/>
<path d="M6556 6125 c4 -8 8 -15 10 -15 2 0 4 7 4 15 0 8 -4 15 -10 15 -5 0
-7 -7 -4 -15z"/>
<path d="M6437 6071 c-17 -6 -17 -8 -3 -20 9 -7 16 -19 16 -25 0 -7 10 -12 23
-13 l22 -2 -24 20 c-19 16 -21 22 -11 34 13 16 6 18 -23 6z"/>
<path d="M6260 5910 c0 -5 5 -10 11 -10 5 0 7 5 4 10 -3 6 -8 10 -11 10 -2 0
-4 -4 -4 -10z"/>
<path d="M6273 5870 c1 -11 4 -20 8 -20 10 0 19 27 12 34 -12 12 -22 5 -20
-14z"/>
<path d="M6290 5839 c-13 -9 -12 -10 3 -5 11 3 17 0 17 -10 0 -18 22 -14 28 6
3 7 0 10 -7 6 -6 -4 -11 -2 -11 3 0 14 -11 14 -30 0z"/>
<path d="M6263 5780 c-1 -12 4 -20 13 -20 9 0 14 7 12 17 -4 24 -23 27 -25 3z"/>
<path d="M6235 5760 c4 -6 1 -18 -7 -27 -11 -14 -11 -16 2 -11 18 5 27 48 10
48 -6 0 -8 -5 -5 -10z"/>
<path d="M5995 5710 c28 -12 37 -12 30 0 -3 6 -16 10 -28 9 -21 0 -21 -1 -2
-9z"/>
<path d="M6161 5694 c0 -11 3 -14 6 -6 3 7 2 16 -1 19 -3 4 -6 -2 -5 -13z"/>
<path d="M6193 5669 c18 -11 24 -39 7 -39 -5 0 -10 -7 -10 -16 0 -8 5 -12 10
-9 6 3 10 2 10 -4 0 -15 -18 -23 -25 -11 -10 16 -45 -7 -45 -30 0 -10 -9 -21
-19 -25 -18 -5 -33 -33 -35 -65 -1 -8 -9 -16 -19 -18 -9 -2 -17 -8 -17 -13 0
-6 5 -7 10 -4 6 3 10 2 10 -4 0 -5 -13 -12 -29 -16 -17 -3 -32 -14 -34 -23 -4
-15 -5 -15 -6 1 0 9 -6 17 -11 17 -6 0 -8 -11 -4 -25 3 -14 2 -25 -4 -25 -5 0
-13 -12 -16 -26 -5 -19 -11 -24 -26 -19 -12 4 -20 2 -20 -4 0 -6 5 -11 11 -11
5 0 8 -4 4 -10 -3 -5 -12 -7 -20 -4 -7 3 -18 -3 -24 -15 -14 -25 -14 -41 -1
-41 6 0 10 7 10 15 0 8 9 15 19 15 19 0 43 25 94 99 16 23 32 39 36 36 13 -7
36 26 51 73 14 44 35 70 47 58 4 -4 1 -16 -6 -27 -22 -37 -4 -31 25 7 20 25
25 39 16 42 -6 2 -12 8 -12 14 0 6 6 8 14 5 23 -9 49 39 42 77 -5 24 -12 32
-29 33 -19 2 -20 1 -4 -8z"/>
<path d="M5990 5660 c8 -5 20 -10 25 -10 6 0 3 5 -5 10 -8 5 -19 10 -25 10 -5
0 -3 -5 5 -10z"/>
<path d="M6160 5654 c0 -10 5 -26 10 -34 8 -11 9 -7 4 15 -8 37 -14 45 -14 19z"/>
<path d="M5950 5630 c0 -11 4 -20 9 -20 5 0 7 9 4 20 -3 11 -7 20 -9 20 -2 0
-4 -9 -4 -20z"/>
<path d="M5981 5606 c2 -2 22 -6 44 -9 27 -4 35 -3 25 3 -14 9 -79 15 -69 6z"/>
<path d="M5929 5570 c-12 -32 20 -75 36 -49 4 5 1 8 -6 7 -7 -2 -16 10 -19 27
-4 19 -8 25 -11 15z"/>
<path d="M5850 5490 c0 -5 5 -10 10 -10 6 0 10 5 10 10 0 6 -4 10 -10 10 -5 0
-10 -4 -10 -10z"/>
<path d="M5950 5476 c0 -2 7 -9 15 -16 13 -11 14 -10 9 4 -5 14 -24 23 -24 12z"/>
<path d="M5834 5445 c-3 -8 -4 -20 -1 -27 3 -7 6 -3 6 10 1 15 5 21 13 16 7
-4 8 -3 4 4 -10 16 -15 15 -22 -3z"/>
<path d="M5412 5268 c3 -7 20 -16 39 -19 19 -4 67 -16 107 -26 93 -25 81 -13
-27 26 -91 33 -125 39 -119 19z"/>
<path d="M5843 5195 c0 -8 7 -17 15 -20 23 -8 24 0 4 18 -15 14 -19 15 -19 2z"/>
<path d="M5824 5148 c-3 -4 5 -8 16 -8 19 0 21 -4 16 -25 -4 -14 -2 -25 4 -25
5 0 10 15 10 33 0 26 -4 33 -21 33 -11 0 -23 -4 -25 -8z"/>
<path d="M5800 5100 c0 -5 5 -10 10 -10 6 0 10 5 10 10 0 6 -4 10 -10 10 -5 0
-10 -4 -10 -10z"/>
<path d="M5780 5059 c0 -5 5 -7 10 -4 6 3 10 8 10 11 0 2 -4 4 -10 4 -5 0 -10
-5 -10 -11z"/>
<path d="M5767 5034 c-4 -4 -7 -12 -7 -18 0 -14 67 -19 75 -6 4 6 -6 10 -24
10 -16 0 -31 5 -33 11 -2 5 -7 7 -11 3z"/>
<path d="M5310 5011 c0 -6 10 -15 23 -20 26 -10 189 -33 194 -27 2 2 -36 13
-84 25 -48 12 -98 24 -110 27 -14 4 -23 2 -23 -5z"/>
<path d="M5641 4658 c0 -9 -4 -25 -7 -35 -5 -14 -4 -15 5 -7 7 7 11 22 8 35
-2 13 -5 16 -6 7z"/>
<path d="M5667 4634 c-7 -13 14 -57 28 -56 5 0 11 6 14 13 2 6 -1 9 -7 5 -6
-3 -14 6 -19 21 -5 15 -12 22 -16 17z"/>
<path d="M5590 4449 c0 -11 5 -17 10 -14 6 3 10 13 10 21 0 8 -4 14 -10 14 -5
0 -10 -9 -10 -21z"/>
<path d="M5190 2630 c0 -5 12 -10 28 -10 21 0 24 2 12 10 -20 13 -40 13 -40 0z"/>
<path d="M4769 1556 c7 -8 26 -17 44 -20 18 -3 43 -8 57 -11 79 -17 240 -26
295 -17 59 9 59 10 -50 12 -60 1 -121 4 -135 5 -14 2 -43 6 -65 8 -22 3 -65
12 -95 21 -67 19 -65 19 -51 2z"/>
<path d="M4577 1524 c6 -15 23 -19 23 -5 0 5 -7 11 -14 14 -10 4 -13 1 -9 -9z"/>
<path d="M5198 1443 c6 -2 18 -2 25 0 6 3 1 5 -13 5 -14 0 -19 -2 -12 -5z"/>
<path d="M5245 1430 c-13 -5 -14 -9 -5 -9 8 0 24 4 35 9 13 5 14 9 5 9 -8 0
-24 -4 -35 -9z"/>
</g>
</svg>
